
<svg version="1.1" id="Layer_1" xmlns="http://www.w3.org/2000/svg" xmlns:xlink="http://www.w3.org/1999/xlink" x="0px" y="0px"
	 viewBox="0 0 116.7 116.7" style="enable-background:new 0 0 116.7 116.7;" xml:space="preserve">
<style type="text/css">
	.st0{fill:#3995FC;}
	.st1{fill:#FFFFFF;}
</style>
<g>
	<path class="st0" d="M116.7,58.3c0,0.4,0,0.9,0,1.3c0,0.7,0,1.4-0.1,2.2c-0.1,1.9-0.3,3.7-0.6,5.5c-0.1,0.6-0.2,1.3-0.3,1.9
		c-0.3,1.8-0.7,3.5-1.2,5.2c-0.2,0.7-0.4,1.3-0.6,2c-0.6,1.9-1.3,3.8-2.1,5.6c-0.3,0.6-0.6,1.3-0.9,1.9c-1,2-2.1,4-3.3,5.9
		c-0.2,0.3-0.4,0.6-0.6,0.9c-10.5,15.7-28.3,26-48.6,26C26.1,116.7,0,90.6,0,58.3C0,26.1,26.1,0,58.3,0c22.2,0,41.5,12.4,51.4,30.7
		h0l0.5,0.9c1,1.9,1.9,3.9,2.7,5.9c0.3,0.6,0.5,1.3,0.7,1.9c0.6,1.9,1.2,3.8,1.6,5.7c0.1,0.6,0.3,1.3,0.4,1.9
		c0.4,1.8,0.6,3.6,0.8,5.4c0.1,0.6,0.1,1.3,0.2,1.9C116.7,55.7,116.7,57,116.7,58.3z"/>
	<g>
		<path class="st1" d="M116.7,59.7c0,0.7,0,1.4-0.1,2.2c-6.4,0-12.8,0.1-19.3,0c-4.7,0-9.3,0.6-13.9,0.9c-5.3,0.4-10.6,0.8-15.9,0.9
			c-8.6,0.2-17.3,0.1-25.9,0.2c-4.4,0-8.9-0.1-13.3-0.2c-2.5,0-5-0.1-7.6-0.3c-1.1-0.1-2.2-0.4-3.1-0.9c-1.4-0.8-1.4-2.4-0.1-3.4
			c1-0.8,2.2-1,3.5-1c12.9-0.1,25.9-0.2,38.8-0.2c5,0,10.1,0,15.1,0.3c5.5,0.3,11,1,16.5,1.5c0.4,0,0.9,0.1,1.3,0.1H116.7z"/>
		<path class="st1" d="M116.6,54.4c-8,0-16,0-24.1,0.1c-3.5,0-7,0.4-10.6,0.6c-6.1,0.4-12.2,0.8-18.2,1.1c-3.6,0.2-7.1,0.2-10.7,0.2
			c-4.3,0-8.6-0.1-12.9-0.1c-4.6-0.1-9.2-0.1-13.8-0.2c-2.1,0-4.1-0.2-6.2-0.5c-0.7-0.1-1.4-0.5-1.9-0.9c-1-0.7-1-1.9-0.2-2.8
			c1-1,2.2-1.4,3.6-1.5c11.5-0.1,22.9-0.3,34.4-0.3c5.8,0,11.5,0.3,17.2,0.7c4.6,0.3,9.1,0.9,13.7,1.4c0.9,0.1,1.8,0.2,2.8,0.2
			c8.9,0,17.8,0,26.7,0C116.5,53.1,116.5,53.8,116.6,54.4z"/>
		<path class="st1" d="M116,67.3c-0.1,0.6-0.2,1.3-0.3,1.9c-5.7,0-11.4,0.1-17.1,0c-7.4-0.1-14.7,0.5-22,1
			c-4.8,0.4-9.7,0.7-14.6,0.8c-7.7,0.1-15.4,0-23,0c-3.3,0-6.7-0.1-10-0.1c-2.6,0-5.2-0.1-7.8-0.3c-1-0.1-2-0.5-2.9-1
			c-1.2-0.8-1.1-2.1,0-3c0.8-0.7,1.8-1.1,2.9-1.1c1.8-0.1,3.7-0.2,5.5-0.2c10.1-0.1,20.2-0.1,30.3-0.1c4.2,0,8.4,0.1,12.6,0.4
			c6.2,0.5,12.4,1.2,18.6,1.7c0.6,0.1,1.3,0.1,1.9,0.1H116z"/>
		<path class="st1" d="M114.4,74.4c-0.2,0.7-0.4,1.3-0.6,2c-8.7,0-17.3,0-26,0.1c-5.6,0.1-11.2,0.8-16.8,1.2
			c-3.7,0.3-7.4,0.6-11.1,0.6c-10.8,0.1-21.7,0-32.5-0.1c-1.3,0-2.7-0.1-4-0.3c-0.8-0.1-1.7-0.5-2.4-0.9c-1.1-0.7-1.2-2-0.2-2.9
			c1-1,2.4-1.4,3.8-1.4c4.3-0.1,8.7-0.2,13-0.2c6.4,0,12.8-0.1,19.2,0.1c6.6,0.2,13.2,0.7,19.8,1.1c5.3,0.3,10.7,0.7,16,0.8
			C100,74.4,107.2,74.4,114.4,74.4z"/>
		<path class="st1" d="M115.6,47.1c-8.6,0-17.3-0.1-25.9,0.1c-5.1,0.1-10.2,0.6-15.3,0.8c-7.6,0.4-15.3,0.9-22.9,1
			c-6.4,0.2-12.8,0-19.3-0.1c-2.8,0-5.7-0.1-8.5-0.3c-0.8-0.1-1.7-0.4-2.5-0.9c-1.2-0.6-1.3-1.9-0.4-2.9c0.9-1.1,2.2-1.4,3.5-1.5
			c2.9-0.1,5.7-0.2,8.5-0.2c8.4,0,16.8-0.1,25.2,0.1c7.2,0.2,14.5,0.8,21.7,1.2c3.8,0.2,7.6,0.6,11.4,0.6c8,0,16,0,24.1,0
			C115.3,45.8,115.5,46.4,115.6,47.1z"/>
		<path class="st1" d="M113.5,39.4c-9.4,0-18.9,0.1-28.3,0.1c-6,0-11.9,0.5-17.8,1.3c-6.6,0.8-13.1,0.8-19.7,0.7
			c-2.5-0.1-5.1,0-7.6,0c-3.4,0-6.8,0-10.2-0.2c-1.1,0-2.3-0.4-3.4-0.9c-1.5-0.7-1.6-2.2-0.3-3.3c1-0.9,2.3-1.3,3.6-1.3
			c8.9-0.1,17.8-0.1,26.6-0.2c6.4-0.1,12.8,1,19.1,1.8c1.8,0.2,3.7,0.3,5.5,0.3c10.6,0,21.2,0,31.7,0
			C113.1,38.1,113.3,38.8,113.5,39.4z"/>
		<path class="st1" d="M111.7,81.9c-0.3,0.6-0.6,1.3-0.9,1.9c-7.6,0-15.3,0-22.9,0c-3.7,0-7.4,0-11.1,0.2c-2.7,0.1-5.3,0.7-8,0.9
			c-4.1,0.3-8.1,0.7-12.2,0.8c-5.5,0.1-11.1,0.1-16.7,0c-3.4,0-6.8-0.1-10.3-0.2c-1.1,0-2.2-0.4-3.2-0.9c-1.4-0.7-1.5-2-0.4-3
			c1.1-1.2,2.6-1.4,4.1-1.4c7.3-0.1,14.6-0.1,21.9-0.2c6.7-0.1,13.4,0.5,20,1.5c2.4,0.4,4.8,0.5,7.2,0.5
			C90.2,82,101,81.9,111.7,81.9z"/>
		<path class="st1" d="M107.5,89.8c-12.4,0.1-24.8,0.2-37.2-0.6c-3.2-0.2-6.5-0.5-9.7-1c-5.8-1-11.6-1.3-17.5-0.9
			c-1.2,0.1-2.3,0.5-3.2,1.4c-1.1,1-1.1,2.3,0.1,3.2c0.8,0.6,1.7,1.1,2.7,1.3c3.7,0.8,7.4,0.9,11.1,0.4c3.1-0.4,6.2-1.4,9.3-1.6
			c6.9-0.6,13.8-1.1,20.7-1.2c7.7-0.1,15.3-0.1,23-0.1L107.5,89.8z"/>
		<path class="st1" d="M109.7,30.7c-12.4,0.1-24.9,0.2-37.3-0.4c-4.1-0.2-8.3-0.6-12.3-1.3c-4.7-0.8-9.4-1.5-14.2-1
			c-1.5,0.2-3.1,0.5-4.6,1c-1,0.3-1.9,1-1.9,2.2c0,1.3,1,1.8,2,2.1c1,0.3,2.1,0.5,3.1,0.5c3,0.1,6.1,0.2,9.1,0
			c2.9-0.2,5.8-0.8,8.7-1c7.2-0.5,14.4-1,21.6-1.2c8.8-0.1,17.5-0.1,26.3-0.1L109.7,30.7z"/>
	</g>
</g>
</svg>
